{"title":"Creature (2014) - DVDScr - x264 - 1xCD - SAP [DDR]","uid":11029780,"size":731167214,"categoryP":"video","categoryS":"movies","magnet":"?xt=urn:btih:2f83f1667f0c136f1f9da0bf97444f735b524bdd&amp;dn=Creature+%282014%29+-+DVDScr+-+x264+-+1xCD+-+SAP+%5BDDR%5D&amp;tr=udp%3A%2F%2Ftracker.openbittorrent.com%3A80&amp;tr=udp%3A%2F%2Fopen.demonii.com%3A1337&amp;tr=udp%3A%2F%2Ftracker.coppersurfer.tk%3A6969&amp;tr=udp%3A%2F%2Fexodus.desync.com%3A6969","seeders":2,"leechers":0,"uploader":"SaM","files":2,"time":1410709130,"description":"[ INFO ]\n\nCode:\nSource                                  : DVDSCREENER[DUS]\nComplete name                            : Creature (2014) - DVDScr - x264 - 1xCD - SAP [DDR].mp4\nFormat                                  : MPEG-4\nFormat profile                          : Base Media\nCodec ID                                : isom\nFile size                                : 697 MiB\nDuration                                : 2h 9mn\nOverall bit rate mode                    : Variable\nOverall bit rate                        : 755 Kbps\nEncoded date                            : UTC 2014-09-13 07:24:16\nTagged date                              : UTC 2014-09-13 07:24:16\n\nVideo\nID                                      : 1\nFormat                                  : AVC\nFormat/Info                              : Advanced Video Codec\nDuration                                : 2h 9mn\nBit rate                                : 675 Kbps\nMaximum bit rate                        : 2 464 Kbps\nWidth                                    : 640 pixels\nHeight                                  : 256 pixels\nDisplay aspect ratio                    : 2.500\nFrame rate mode                          : Constant\nFrame rate                              : 25.000 fps\nColor space                              : YUV\nChroma subsampling                      : 4:2:0\nBit depth                                : 8 bits\nScan type                                : Progressive\nBits/(Pixel*Frame)                      : 0.165\nStream size                              : 623 MiB (89%)\n\nAudio\nID                                      : 2\nFormat                                  : MPEG Audio\nFormat version                          : Version 1\nFormat profile                          : Layer 3\nMode                                    : Joint stereo\nMode extension                          : MS Stereo\nDuration                                : 2h 9mn\nBit rate mode                            : Variable\nBit rate                                : 80.0 Kbps\nMaximum bit rate                        : 97.9 Kbps\nChannel(s)                              : 2 channels\nSampling rate                            : 32.0 KHz\nCompression mode                        : Lossy\nStream size                              : 71.2 MiB (10%)\nWriting library                          : LAME3.99r\n\n[ SCREENS ]\n &lt;a href=&quot;\nhttp://t1.someimage.com/uFpd4gH.jpg&quot; rel=&quot;nofollow&quot; target=&quot;_NEW&quot;&gt;\nhttp://t1.someimage.com/uFpd4gH.jpg&lt;/a&gt;  &lt;a href=&quot;\nhttp://t1.someimage.com/dZpwagK.jpg&quot; rel=&quot;nofollow&quot; target=&quot;_NEW&quot;&gt;\nhttp://t1.someimage.com/dZpwagK.jpg&lt;/a&gt;  &lt;a href=&quot;\nhttp://t1.someimage.com/cwPAJrq.jpg&quot; rel=&quot;nofollow&quot; target=&quot;_NEW&quot;&gt;\nhttp://t1.someimage.com/cwPAJrq.jpg&lt;/a&gt;  &lt;a href=&quot;\nhttp://t1.someimage.com/lRgAHqX.jpg&quot; rel=&quot;nofollow&quot; target=&quot;_NEW&quot;&gt;\nhttp://t1.someimage.com/lRgAHqX.jpg&lt;/a&gt;  &lt;a href=&quot;\nhttp://t1.someimage.com/5Hq3hoG.jpg&quot; rel=&quot;nofollow&quot; target=&quot;_NEW&quot;&gt;\nhttp://t1.someimage.com/5Hq3hoG.jpg&lt;/a&gt;  &lt;a href=&quot;\nhttp://t1.someimage.com/moQsTE9.jpg&quot; rel=&quot;nofollow&quot; target=&quot;_NEW&quot;&gt;\nhttp://t1.someimage.com/moQsTE9.jpg&lt;/a&gt;  &lt;a href=&quot;\nhttp://t1.someimage.com/Ebyo2OB.jpg&quot; rel=&quot;nofollow&quot; target=&quot;_NEW&quot;&gt;\nhttp://t1.someimage.com/Ebyo2OB.jpg&lt;/a&gt;  &lt;a href=&quot;\nhttp://t1.someimage.com/q3Ddm9z.jpg&quot; rel=&quot;nofollow&quot; target=&quot;_NEW&quot;&gt;\nhttp://t1.someimage.com/q3Ddm9z.jpg&lt;/a&gt;  &lt;a href=&quot;\nhttp://t1.someimage.com/2fzLDes.jpg&quot; rel=&quot;nofollow&quot; target=&quot;_NEW&quot;&gt;\nhttp://t1.someimage.com/2fzLDes.jpg&lt;/a&gt;  &lt;a href=&quot;\nhttp://t1.someimage.com/BshhtWK.jpg&quot; rel=&quot;nofollow&quot; target=&quot;_NEW&quot;&gt;\nhttp://t1.someimage.com/BshhtWK.jpg&lt;/a&gt;\n","torrent":{"xt":"urn:btih:2f83f1667f0c136f1f9da0bf97444f735b524bdd","amp;dn":"Creature+%282014%29+-+DVDScr+-+x264+-+1xCD+-+SAP+%5BDDR%5D","amp;tr":["udp%3A%2F%2Ftracker.openbittorrent.com%3A80","udp%3A%2F%2Fopen.demonii.com%3A1337","udp%3A%2F%2Ftracker.coppersurfer.tk%3A6969","udp%3A%2F%2Fexodus.desync.com%3A6969"],"infoHash":"2f83f1667f0c136f1f9da0bf97444f735b524bdd","infoHashBuffer":{"type":"Buffer","data":[47,131,241,102,127,12,19,111,31,157,160,191,151,68,79,115,91,82,75,221]},"announce":[],"urlList":[]}}